<svg width="141" height="36" viewBox="0 0 141 36" fill="none" xmlns="http://www.w3.org/2000/svg">
<path d="M10.3438 11.3516V23.1929L16.0308 25.9446L21.6798 23.15V11.3516H10.3438ZM20.0666 22.6733L16.6879 18.7478L13.325 22.6558L11.9505 21.059L16.0021 16.3516L17.9915 18.6658V15.5885H13.913L11.9086 13.1598H20.0669L20.0666 22.6733Z" fill="#00326D"/>
<path d="M16.0739 26.7579L9.69531 23.6086L9.70714 10.5527H22.322V23.639L16.0739 26.7579ZM10.021 23.36L16.071 26.3487L21.9977 23.3917V10.9312H10.0321L10.021 23.36Z" fill="#00326D"/>
<path d="M16.0114 0C7.63228 0 0.839844 7.89255 0.839844 17.6296C0.839844 27.3654 7.63228 35.26 16.0114 35.26C24.3905 35.26 31.1833 27.3654 31.1833 17.6296C31.1833 7.89297 24.3909 0 16.0114 0ZM16.0114 29.5254C10.3591 29.5254 5.77543 24.2002 5.77543 17.63C5.77543 11.0611 10.3591 5.7358 16.0114 5.7358C21.6654 5.7358 26.2477 11.0611 26.2477 17.63C26.2477 24.2002 21.6654 29.5254 16.0114 29.5254Z" fill="#00326D"/>
<path d="M29.1588 14.506C29.1588 14.8 28.9531 15.036 28.6994 15.036C28.4464 15.036 28.2422 14.8 28.2422 14.506C28.2422 14.2116 28.4468 13.9727 28.6994 13.9727C28.9531 13.9727 29.1588 14.2121 29.1588 14.506Z" fill="white"/>
<path d="M3.82711 14.506C3.82711 14.8 3.62215 15.036 3.36953 15.036C3.11619 15.036 2.91016 14.8 2.91016 14.506C2.91016 14.2116 3.11619 13.9727 3.36953 13.9727C3.62215 13.9727 3.82711 14.2121 3.82711 14.506Z" fill="white"/>
<path d="M2.18667 16.2949L4.32946 16.3595L4.30688 17.2938C4.30187 17.4836 4.27858 17.6364 4.23235 17.7505C4.18649 17.8621 4.11805 17.952 4.0256 18.0124C3.93351 18.0761 3.83855 18.1065 3.7418 18.1023C3.64971 18.0982 3.56443 18.0678 3.48524 18.0074C3.40462 17.9487 3.34227 17.8575 3.29461 17.7405C3.25197 17.8888 3.18568 18.0033 3.09144 18.0819C2.99899 18.1598 2.89006 18.1981 2.76501 18.1948C2.66467 18.1885 2.57115 18.164 2.4873 18.1119C2.40202 18.0599 2.33681 17.9949 2.29166 17.9229C2.24722 17.85 2.21462 17.7564 2.19312 17.6477C2.17162 17.5361 2.16194 17.4029 2.16445 17.2434L2.18667 16.2949ZM2.43212 16.6301L2.41743 17.2521C2.41528 17.3587 2.41743 17.4316 2.4228 17.4753C2.43355 17.5511 2.45219 17.6156 2.47691 17.6681C2.50307 17.7193 2.54213 17.7634 2.59408 17.7976C2.64461 17.8317 2.70552 17.8513 2.77361 17.8546C2.85136 17.8559 2.92339 17.8342 2.98251 17.7867C3.04235 17.7418 3.08714 17.6781 3.11187 17.5936C3.13695 17.5111 3.152 17.39 3.15594 17.2309L3.17027 16.6551L2.43212 16.6301ZM3.42289 16.6605L3.40999 17.1993C3.40605 17.3446 3.41107 17.4503 3.42648 17.5132C3.4469 17.599 3.48238 17.6635 3.52967 17.7064C3.57805 17.7522 3.63932 17.7751 3.71529 17.7759C3.78731 17.7797 3.84894 17.7609 3.90448 17.7226C3.96002 17.6843 3.99801 17.6289 4.01879 17.5561C4.04029 17.4824 4.05426 17.3579 4.05677 17.1784L4.0686 16.6826L3.42289 16.6605Z" fill="white"/>
<path d="M4.4596 19.9592L4.49579 20.2882L3.26673 20.4659C3.05388 20.4959 2.88009 20.4934 2.75002 20.453C2.61744 20.4164 2.50457 20.3302 2.40925 20.1949C2.31501 20.0571 2.25445 19.8718 2.22973 19.6341C2.20644 19.4021 2.22005 19.2069 2.27201 19.0528C2.3254 18.8933 2.41391 18.7734 2.53753 18.6927C2.66008 18.6106 2.83423 18.5523 3.05997 18.5211L4.28975 18.3438L4.32415 18.6723L3.09795 18.8484C2.91091 18.8763 2.77833 18.9154 2.6934 18.9666C2.61063 19.0199 2.55151 19.0974 2.51388 19.2015C2.47626 19.306 2.46694 19.4284 2.48056 19.5695C2.50707 19.8102 2.57086 19.9738 2.67692 20.0633C2.78084 20.1528 2.96824 20.177 3.23412 20.1387L4.4596 19.9592Z" fill="white"/>
<path d="M3.10793 20.833L3.20396 21.1241C3.10435 21.1728 3.02623 21.2344 2.97392 21.3068C2.91945 21.3797 2.88649 21.4788 2.87179 21.6012C2.85746 21.7232 2.86714 21.8531 2.90046 21.9884C2.92877 22.1108 2.97033 22.2108 3.02372 22.2944C3.07819 22.3752 3.13731 22.4323 3.20253 22.4597C3.26774 22.4868 3.33153 22.4914 3.39567 22.4681C3.4616 22.4472 3.51105 22.406 3.54903 22.3482C3.58701 22.289 3.61031 22.2028 3.61855 22.0908C3.62464 22.0213 3.62249 21.8656 3.61532 21.632C3.60708 21.3976 3.61317 21.2286 3.6318 21.1265C3.65545 20.9958 3.69809 20.8884 3.75901 20.8072C3.82423 20.7256 3.90234 20.6698 3.99694 20.6394C4.10085 20.6048 4.2062 20.6073 4.31478 20.6469C4.4212 20.6852 4.51365 20.7626 4.59391 20.8796C4.67203 20.9958 4.73043 21.1345 4.77128 21.2943C4.81428 21.4738 4.82826 21.6387 4.81142 21.7898C4.79493 21.9422 4.74763 22.0696 4.66952 22.1762C4.5914 22.2782 4.49215 22.3536 4.37354 22.3981L4.2793 22.1013C4.40579 22.0417 4.49107 21.9543 4.53479 21.8385C4.57814 21.7219 4.57707 21.57 4.53335 21.388C4.48749 21.1944 4.4212 21.0653 4.34057 20.9979C4.25816 20.9292 4.17503 20.91 4.0901 20.9384C4.01593 20.9621 3.96254 21.0145 3.92957 21.0895C3.89625 21.1678 3.88586 21.3435 3.89912 21.6187C3.91237 21.8922 3.91094 22.0846 3.89661 22.1899C3.87547 22.3477 3.83032 22.4747 3.76188 22.5692C3.6938 22.6646 3.6035 22.7304 3.49242 22.7658C3.38348 22.802 3.27025 22.7982 3.15666 22.7583C3.04092 22.7166 2.9388 22.6371 2.85388 22.5176C2.76645 22.3977 2.70016 22.2532 2.66002 22.0829C2.60771 21.8643 2.59015 21.6749 2.60878 21.51C2.62634 21.3468 2.68116 21.2019 2.7686 21.0866C2.85782 20.9675 2.97177 20.8821 3.10793 20.833Z" fill="white"/>
<path d="M2.95703 23.1513L5.24889 23.0039L5.37394 23.3287L3.77903 25.2785L3.64538 24.9358L4.13485 24.3612L3.76864 23.4107L3.08065 23.469L2.95703 23.1513ZM4.01302 23.3874L4.31115 24.1568L4.76192 23.6389C4.89665 23.4811 5.01132 23.3566 5.10484 23.2666C4.96796 23.302 4.82821 23.3278 4.68417 23.3374L4.01302 23.3874Z" fill="white"/>
<path d="M3.91016 25.5218L5.70896 24.1699L5.86554 24.4547L5.06397 26.614L6.47721 25.5535L6.62627 25.8187L4.82532 27.1711L4.66694 26.8867L5.46995 24.7249L4.05671 25.7883L3.91016 25.5218Z" fill="white"/>
<path d="M5.58594 28.2641L7.11384 26.5195L7.31092 26.7535L6.55306 27.6183L8.06018 27.635L8.32857 27.9539L7.07801 27.9164L6.82754 29.7326L6.5656 29.4241L6.80317 27.9073L6.31442 27.8948L5.78445 28.4993L5.58594 28.2641Z" fill="white"/>
<path d="M7.875 30.6567L8.40031 29.7965L8.44008 28.0703L8.72173 28.3026L8.69198 29.1987C8.68625 29.3635 8.67586 29.5267 8.66153 29.6887C8.77798 29.6279 8.91451 29.5588 9.07038 29.4876L9.77413 29.1687L10.0425 29.3881L8.63179 29.9872L8.10505 30.8474L7.875 30.6567Z" fill="white"/>
<path d="M11.4222 30.1661L11.6781 30.311L11.1384 31.6055C11.0464 31.8332 10.9496 31.9981 10.8504 32.1063C10.7511 32.2121 10.6264 32.2771 10.4773 32.2929C10.3297 32.3137 10.1616 32.2712 9.97496 32.1663C9.79544 32.0635 9.6625 31.9452 9.5765 31.8082C9.49229 31.6725 9.45324 31.5209 9.46219 31.3548C9.47008 31.1928 9.52347 30.9909 9.62165 30.7515L10.1606 29.457L10.4171 29.6023L9.87749 30.8943C9.79544 31.0888 9.75244 31.2424 9.74527 31.3511C9.73846 31.4606 9.76175 31.5626 9.8173 31.6563C9.87033 31.7483 9.95418 31.8261 10.0635 31.8869C10.2527 31.991 10.4053 32.0177 10.5268 31.9639C10.649 31.909 10.7672 31.7412 10.8837 31.461L11.4222 30.1661Z" fill="white"/>
<path d="M11.2148 32.7651L11.8287 30.3789L12.1064 30.4759L12.7033 32.7251L13.1849 30.8511L13.4461 30.9414L12.8313 33.3284L12.5539 33.2306L11.9573 30.9814L11.475 32.8567L11.2148 32.7651Z" fill="white"/>
<path d="M14.4405 32.6372L14.4724 32.3478L15.3729 32.4781L15.2743 33.395C15.1228 33.5024 14.968 33.5782 14.8153 33.6219C14.6602 33.6648 14.5054 33.6739 14.3516 33.6519C14.1427 33.6219 13.9589 33.5411 13.7987 33.4129C13.64 33.2838 13.5268 33.1135 13.4605 32.9057C13.3967 32.6963 13.3756 32.4715 13.4014 32.2271C13.4272 31.9881 13.4959 31.7674 13.6045 31.5734C13.7135 31.3777 13.8553 31.2403 14.0281 31.1637C14.2019 31.0854 14.3939 31.0621 14.6053 31.0937C14.759 31.1158 14.8959 31.1649 15.0145 31.242C15.1314 31.3173 15.2202 31.4123 15.2793 31.5247C15.3385 31.64 15.3786 31.782 15.3976 31.9535L15.1353 31.9977C15.1163 31.8665 15.088 31.7624 15.0479 31.6841C15.0088 31.6025 14.9457 31.5384 14.8633 31.4822C14.7809 31.4243 14.686 31.3881 14.5774 31.374C14.4509 31.3548 14.3362 31.361 14.2363 31.3923C14.1384 31.4243 14.0567 31.4743 13.9901 31.5401C13.9241 31.6046 13.8722 31.6796 13.8296 31.7641C13.7586 31.9081 13.7138 32.0714 13.6948 32.2487C13.6712 32.4698 13.683 32.6588 13.7328 32.8166C13.7826 32.974 13.8654 33.0985 13.9822 33.1889C14.0994 33.2801 14.2269 33.3346 14.3678 33.355C14.4896 33.3729 14.6125 33.3637 14.7333 33.325C14.8551 33.2863 14.9508 33.2426 15.017 33.1889L15.0654 32.7271L14.4405 32.6372Z" fill="white"/>
<path d="M15.5664 32.9483L15.8323 32.9125C15.8488 33.0357 15.8817 33.1378 15.9294 33.2152C15.9788 33.2935 16.0527 33.3551 16.1508 33.4013C16.2494 33.4467 16.3605 33.4663 16.4819 33.4634C16.5894 33.4592 16.684 33.4367 16.7668 33.3971C16.8474 33.3572 16.9087 33.3026 16.9467 33.2364C16.9857 33.169 17.0033 33.099 17.0008 33.0203C16.9997 32.9421 16.9782 32.875 16.937 32.8192C16.8969 32.7622 16.8306 32.7156 16.7406 32.6785C16.6826 32.6548 16.554 32.6198 16.3562 32.5711C16.1591 32.5236 16.0193 32.4757 15.9387 32.4312C15.8348 32.3729 15.7552 32.2984 15.7036 32.2084C15.6506 32.1173 15.6219 32.0132 15.6198 31.9012C15.6173 31.7729 15.6449 31.6563 15.7022 31.5452C15.7613 31.4328 15.8481 31.347 15.9645 31.2858C16.0806 31.225 16.2107 31.1921 16.3551 31.1863C16.5142 31.1809 16.655 31.2058 16.7783 31.2612C16.9012 31.3178 16.9954 31.3999 17.0642 31.5139C17.133 31.6272 17.1706 31.7571 17.18 31.9024L16.9108 31.9353C16.8922 31.7771 16.8374 31.6626 16.7525 31.5835C16.665 31.506 16.54 31.4706 16.3769 31.4765C16.2042 31.4831 16.0799 31.5248 16.0039 31.5997C15.9269 31.6755 15.8896 31.7646 15.8932 31.8687C15.8953 31.9586 15.9247 32.0311 15.9817 32.0852C16.0387 32.1427 16.1831 32.1947 16.4146 32.2488C16.6464 32.2996 16.8062 32.3475 16.8926 32.3887C17.0198 32.452 17.1147 32.5328 17.176 32.6335C17.2373 32.7322 17.2706 32.8505 17.2753 32.9854C17.2778 33.1157 17.2495 33.2439 17.1864 33.3609C17.1237 33.4817 17.033 33.5762 16.9137 33.6461C16.7904 33.7148 16.6557 33.7536 16.5024 33.759C16.3081 33.7652 16.1462 33.7382 16.0125 33.6778C15.8799 33.617 15.7735 33.5212 15.6954 33.3922C15.6184 33.2627 15.5746 33.1144 15.5664 32.9483Z" fill="white"/>
<path d="M17.4609 33.679L17.8985 31.0613L18.1987 30.998L19.4353 33.2743L19.1168 33.338L18.7588 32.6456L17.8741 32.8288L17.7569 33.6186L17.4609 33.679ZM17.9174 32.5465L18.6316 32.3995L18.3077 31.765C18.2098 31.5726 18.1328 31.4148 18.0808 31.2878C18.0783 31.4519 18.0629 31.6147 18.0393 31.7796L17.9174 32.5465Z" fill="white"/>
<path d="M19.6738 33.1872L18.9844 30.8306L19.2585 30.7206L20.8656 32.15L20.3238 30.2993L20.5822 30.1973L21.2723 32.5555L20.9982 32.6625L19.39 31.234L19.9314 33.0856L19.6738 33.1872Z" fill="white"/>
<path d="M22.2373 30.9064L22.1176 30.6508L22.9163 30.1486L23.2947 30.9639C23.2238 31.1521 23.1363 31.3186 23.0321 31.456C22.9289 31.5951 22.8088 31.7075 22.6727 31.7941C22.486 31.9094 22.2971 31.9706 22.1029 31.9731C21.9076 31.9748 21.7313 31.914 21.573 31.7878C21.416 31.6613 21.287 31.4901 21.1878 31.2761C21.0885 31.063 21.0344 30.8385 21.0244 30.605C21.0161 30.373 21.0624 30.1661 21.1663 29.9858C21.268 29.8043 21.4124 29.6577 21.6006 29.5391C21.7374 29.4546 21.8725 29.4025 22.0076 29.3859C22.1413 29.368 22.2606 29.3846 22.3659 29.4362C22.4702 29.4899 22.5741 29.579 22.6745 29.7056L22.482 29.9196C22.4036 29.8251 22.328 29.7602 22.2559 29.7239C22.1843 29.6852 22.0997 29.6711 22.0048 29.6819C21.9084 29.6927 21.8141 29.7269 21.7177 29.7864C21.6045 29.8576 21.5149 29.94 21.4501 30.0337C21.3859 30.1249 21.3422 30.219 21.3232 30.3185C21.3017 30.4168 21.2963 30.5142 21.3046 30.6091C21.3189 30.774 21.3637 30.9381 21.4372 31.0963C21.5282 31.2915 21.6321 31.4369 21.7514 31.5318C21.8697 31.6263 22.0001 31.6738 22.1406 31.6663C22.2803 31.6609 22.4122 31.6196 22.5369 31.5422C22.6458 31.4739 22.74 31.3831 22.8207 31.2707C22.9009 31.1579 22.9554 31.0575 22.983 30.9697L22.7934 30.56L22.2373 30.9064Z" fill="white"/>
<path d="M25.0684 28.6554L25.33 28.5001C25.4364 28.7516 25.4719 28.9889 25.4335 29.2142C25.397 29.4382 25.2941 29.6351 25.1239 29.8046C24.9491 29.9799 24.7764 30.0798 24.6047 30.109C24.4334 30.1352 24.2618 30.0977 24.088 29.9974C23.9157 29.8987 23.7616 29.7609 23.6279 29.5764C23.4821 29.382 23.3868 29.1788 23.3427 28.9677C23.3004 28.7566 23.3083 28.553 23.3724 28.3569C23.4348 28.1625 23.538 27.993 23.682 27.8473C23.8444 27.6857 24.0174 27.5979 24.198 27.5825C24.3815 27.5671 24.5578 27.6262 24.7301 27.7557L24.561 28.0263C24.4213 27.9264 24.2941 27.8802 24.1754 27.8918C24.0572 27.9006 23.9436 27.9593 23.835 28.0671C23.7107 28.1916 23.6329 28.3298 23.5982 28.4843C23.5677 28.6379 23.577 28.7912 23.6286 28.9402C23.6831 29.0926 23.7551 29.23 23.8476 29.3537C23.9669 29.5156 24.0916 29.6343 24.2192 29.7134C24.3492 29.7946 24.4779 29.8204 24.6054 29.7946C24.7362 29.7684 24.8495 29.7068 24.9487 29.6081C25.0695 29.4882 25.1397 29.3458 25.1641 29.1813C25.1881 29.0168 25.1576 28.8407 25.0684 28.6554Z" fill="white"/>
<path d="M25.1885 28.0766C24.9169 27.8076 24.7643 27.5182 24.7331 27.1956C24.7019 26.8762 24.7822 26.5823 24.9764 26.3116C25.1029 26.1363 25.253 26.0131 25.4282 25.9407C25.602 25.869 25.7801 25.8599 25.965 25.9123C26.1478 25.9623 26.3208 26.0689 26.4857 26.2279C26.6534 26.3916 26.7738 26.5744 26.849 26.7821C26.9257 26.9866 26.9443 27.1939 26.9092 27.4029C26.873 27.6132 26.7963 27.7997 26.677 27.9667C26.5469 28.1461 26.3943 28.2702 26.2184 28.3397C26.0403 28.4097 25.8607 28.4172 25.6805 28.363C25.4992 28.311 25.3333 28.2152 25.1885 28.0766ZM25.3806 27.8184C25.5791 28.0104 25.7798 28.0999 25.9837 28.0857C26.1872 28.0753 26.3556 27.975 26.49 27.7872C26.6272 27.5969 26.6817 27.3842 26.6541 27.1493C26.6283 26.9141 26.509 26.6938 26.2958 26.489C26.1639 26.3574 26.0263 26.2712 25.8891 26.2271C25.7518 26.1842 25.6207 26.1855 25.4917 26.2329C25.3648 26.2804 25.2555 26.367 25.1631 26.4932C25.0355 26.6726 24.9771 26.8771 24.9904 27.1106C25.0033 27.3425 25.1333 27.5778 25.3806 27.8184Z" fill="white"/>
<path d="M27.6053 26.4653L25.7656 25.1908L25.9097 24.9102L27.5347 26.031L28.0736 24.9789L28.2911 25.13L27.6053 26.4653Z" fill="white"/>
<path d="M28.4242 24.807L26.4648 23.7961L26.5817 23.4959L28.3084 24.3873L28.7366 23.2656L28.9674 23.3847L28.4242 24.807Z" fill="white"/>
<path d="M29.087 23.0175L27.0312 22.3151L27.4663 20.5859L27.7103 20.67L27.353 22.0823L27.9837 22.2955L28.318 20.9732L28.5592 21.056L28.2248 22.378L28.925 22.6153L29.2952 21.1493L29.5385 21.2321L29.087 23.0175Z" fill="white"/>
<path d="M28.9257 19.4702L28.6748 19.4336L28.7891 18.3864L29.5768 18.5026C29.6696 18.6796 29.7348 18.8565 29.771 19.036C29.8086 19.215 29.8172 19.3953 29.7982 19.5743C29.771 19.8162 29.7022 20.0294 29.5914 20.2163C29.4825 20.4012 29.3349 20.5328 29.1539 20.6086C28.9744 20.6831 28.7798 20.7089 28.5713 20.6768C28.3656 20.6456 28.1768 20.5686 28.008 20.4395C27.8399 20.3129 27.7235 20.1489 27.6572 19.9486C27.5905 19.7454 27.5705 19.5223 27.5977 19.2766C27.6167 19.0951 27.6579 18.941 27.7242 18.8032C27.7894 18.6658 27.8718 18.5626 27.9689 18.493C28.066 18.4247 28.189 18.3785 28.338 18.3594L28.3753 18.6629C28.2621 18.6833 28.1728 18.717 28.1065 18.7649C28.0363 18.8095 27.979 18.8815 27.9317 18.9793C27.8826 19.0734 27.8507 19.1854 27.8382 19.3099C27.8206 19.4598 27.8278 19.5914 27.8546 19.7063C27.8815 19.8212 27.9231 19.9174 27.9797 19.9915C28.0356 20.0698 28.1019 20.1318 28.1728 20.1793C28.2982 20.2621 28.4376 20.3142 28.5914 20.3363C28.7802 20.365 28.9436 20.3496 29.0783 20.2934C29.2141 20.2359 29.322 20.1393 29.4001 20.0036C29.4768 19.8679 29.5252 19.7188 29.542 19.5556C29.5585 19.414 29.5492 19.2708 29.5169 19.1296C29.4854 18.9897 29.4452 18.8815 29.4005 18.8032L29.0049 18.7433L28.9257 19.4702Z" fill="white"/>
<path d="M29.879 18.0258L27.7362 18.0982L27.6914 16.3L27.943 16.2904L27.9809 17.7626L28.637 17.7393L28.6008 16.3624L28.852 16.3537L28.8879 17.7302L29.6178 17.706L29.5787 16.1767L29.8317 16.168L29.879 18.0258Z" fill="white"/>
<path d="M3.07634 11.5337L4.01194 12.0645C4.27029 12.2107 4.39355 11.8497 4.39355 11.8497L5.38433 9.48848L4.15849 8.80273L3.82489 9.31153L4.29179 9.57633L3.63103 11.1514L3.18635 10.8987L2.87891 11.629L3.01041 11.6952L3.07634 11.5337ZM3.86645 11.2997L4.53115 9.71665L4.89055 9.9215L4.22478 11.5074L3.86645 11.2997Z" fill="white"/>
<path d="M4.35547 12.6433L4.58946 12.7869L5.18607 11.3888L5.9794 11.8376L6.20873 11.2914L5.39999 10.835L6.01524 9.36902L5.78519 9.23828L4.35547 12.6433Z" fill="white"/>
<path d="M6.9126 6.48207C7.32252 6.65403 7.96859 6.43252 7.96859 6.43252L7.98973 6.13024C7.12186 6.26098 6.85921 5.93664 6.85921 5.93664L6.59404 5.60938L6.08594 6.14273L6.16656 6.23225L6.26259 6.13191L6.43387 6.35258C6.7234 6.75812 6.49335 7.70867 6.49335 7.70867L6.75458 7.70201C6.99895 7.11244 6.9126 6.48207 6.9126 6.48207Z" fill="white"/>
<path d="M8.78226 4.807L8.58768 4.55677L8.33936 4.81491L7.88608 4.23242L7.44283 4.53637L9.20723 6.81137L8.01866 8.0567L7.47365 7.35347L7.08594 7.76067L7.64744 8.48472C7.64744 8.48472 7.78252 8.70456 8.02332 8.45308L9.88088 6.50909L9.71426 6.29466L9.58885 6.4279L8.53394 5.06848L8.78226 4.807Z" fill="white"/>
<path d="M11.4437 2.49023L10.909 2.6014L9.64844 3.19264L9.7502 3.4895L10.8689 2.96405C10.8925 3.76971 10.015 4.49085 10.015 4.49085L10.2662 4.65198C11.4587 3.81218 11.4437 2.49023 11.4437 2.49023Z" fill="#FBFBFC"/>
<path d="M13.2354 4.17067H13.2365L12.4271 1.8457L11.9351 1.97103L12.1149 2.48732L11.7036 2.68051L11.8079 2.98487L12.2214 2.79251L12.292 2.99403L11.8863 3.18514L11.9963 3.49741L12.4005 3.30796L12.5969 3.87422C12.3532 3.87755 12.0662 3.94666 11.7763 4.08281C11.0948 4.403 10.6526 4.97216 10.7852 5.35355C10.9178 5.73494 11.576 5.78615 12.2561 5.46638C12.9348 5.14745 13.3795 4.5787 13.2448 4.1969C13.2437 4.18857 13.2387 4.17899 13.2354 4.17067ZM12.1343 5.11622C11.7323 5.30733 11.3524 5.30733 11.2869 5.11747C11.2206 4.92928 11.495 4.62408 11.8982 4.43339C12.3013 4.24478 12.6807 4.24353 12.7474 4.43172C12.8105 4.62034 12.5385 4.92761 12.1343 5.11622Z" fill="#FBFBFC"/>
<path d="M15.4527 2.27674C15.6576 2.72308 16.265 3.06283 16.265 3.06283L16.4535 2.85299C15.7343 2.27674 15.7254 1.82915 15.7254 1.82915L15.7178 1.38281H15.0324L15.0413 1.51064H15.1714V1.80833C15.1549 2.33586 14.4336 2.86215 14.4336 2.86215L14.631 3.06325C15.1545 2.81426 15.4527 2.27674 15.4527 2.27674Z" fill="#FCFDFD"/>
<path d="M17.457 2.49556H17.834V2.16705H17.457V1.3643L16.9615 1.26562V3.32079C16.7318 3.21753 16.4447 3.15466 16.1316 3.15466C15.3984 3.15466 14.8047 3.49024 14.8047 3.90244C14.8047 4.31339 15.3981 4.64731 16.1316 4.64731C16.8647 4.64731 17.457 4.31339 17.457 3.90244C17.457 3.8912 17.457 3.87996 17.4556 3.87246H17.457V2.49556ZM16.1316 4.26926C15.6951 4.26926 15.3433 4.10438 15.3433 3.90244C15.3433 3.69884 15.6948 3.53313 16.1316 3.53313C16.5666 3.53313 16.9181 3.69884 16.9181 3.90244C16.9181 4.10438 16.5666 4.26926 16.1316 4.26926Z" fill="#FCFDFD"/>
<path d="M22.098 2.77614L21.7149 3.88033L21.4713 3.76625L21.8192 2.76199L21.3813 2.43098L20.6464 4.54734L19.5546 4.03605L20.1279 2.38726L21.0316 2.81028L21.1377 2.50384L19.7391 1.84766L19.0665 3.78749C19.0665 3.78749 18.911 4.05271 19.2923 4.24257L20.5468 4.83172L20.3028 5.53662L20.7768 5.75896L21.3803 4.02648L21.625 4.14181L21.018 5.88178L21.4939 6.10579L22.5355 3.1059L22.098 2.77614Z" fill="white"/>
<path d="M25.259 6.63534C25.3725 6.49835 25.4188 6.30974 25.4023 6.09781L25.6223 6.34513L25.8151 6.11322L25.2013 5.42414L25.3503 5.24594L24.9859 4.83749L24.8376 5.01652L24.2492 4.35742L24.0564 4.58809L24.2718 4.82999C24.0922 4.81917 23.9292 4.87829 23.8156 5.01402C23.5487 5.3367 23.6533 5.96083 24.0521 6.40925C24.4513 6.85517 24.9909 6.95843 25.259 6.63534ZM24.0969 5.34961C24.265 5.14768 24.586 5.19014 24.8171 5.44829C25.045 5.70394 25.0952 6.07741 24.9257 6.2806C24.758 6.48253 24.4352 6.43756 24.2055 6.18192C23.9776 5.92502 23.9288 5.5528 24.0969 5.34961Z" fill="#FDFDFF"/>
<path d="M26.221 7.48912L25.9752 7.21307L26.5087 6.57188L26.2109 6.07516L24.9299 7.61528L23.5271 6.04102L23.3594 6.24295L24.7604 7.81763L24.2068 8.48381L24.5759 8.89767L25.8024 7.42001L26.0472 7.69647L26.221 7.48912Z" fill="#FDFDFF"/>
<path d="M27.3266 12.3809L29.1433 11.3533L29.0158 10.795L28.0508 8.49414L27.8329 8.61905L28.7872 10.8928L27.1034 11.8471L26.9353 11.447L28.015 10.8324L27.7907 10.297L26.7092 10.9111L26.5415 10.5085L27.6212 9.89645L27.3965 9.361L26.3169 9.97347L26.0872 9.42721L25.8711 9.55087L27.2084 12.741L27.4269 12.619L27.3266 12.3809Z" fill="white"/>
<path d="M36.9395 15.7099V20.9619C36.9395 22.4208 38.39 22.2917 38.39 22.2917H48.2117L48.1841 15.4185L45.8403 14.8672V17.4944H39.2833V14.9967H36.2422L36.2701 15.7099H36.9395ZM39.2317 18.8447H45.8174V20.8715H39.2184L39.2317 18.8447Z" fill="#231815"/>
<path d="M35.6463 23.6328L35.6094 24.9727L41.4505 25.0155V29.4681H43.7194V24.9289H49.8199V23.6328H35.6463Z" fill="#231815"/>
<path d="M54.8241 19.3677C55.7171 21.313 58.3587 22.7827 58.3587 22.7827L59.1764 21.8747C56.051 19.3677 56.0145 17.4242 56.0145 17.4242L55.9776 15.4785H53.0017L53.0379 16.0406H53.5976V17.3372C53.5227 19.6271 50.3984 21.9196 50.3984 21.9196L51.2523 22.784C53.522 21.7027 54.8241 19.3677 54.8241 19.3677Z" fill="#231815"/>
<path d="M65.0533 20.2746V18.8053H63.6024V15.3903L61.4077 14.8711V28.1859H54.4501V24.0785H52.1818V28.3142C52.1818 28.3142 52.0686 29.4808 53.4829 29.4808H64.346V28.2284H63.6021V20.2746H65.0533Z" fill="#231815"/>
<path d="M74.467 16.2988L72.1601 15.7363H66.2459V17.1203H71.4904C70.4484 20.4029 65.9102 21.6578 65.9102 21.6578L66.691 22.7812C72.6811 21.6582 74.467 16.2988 74.467 16.2988Z" fill="#231815"/>
<path d="M79.3313 26.453L79.3367 26.4555V15.5618L77.1792 15.1309V17.5512H75.2446V18.976H77.1792V19.9286H75.283V21.3975H77.1792V24.0577C76.1917 23.6109 74.9365 23.344 73.5709 23.344C70.3864 23.344 67.8047 24.7946 67.8047 26.5841C67.8047 28.3753 70.3868 29.8272 73.5709 29.8272C76.7553 29.8272 79.3367 28.3753 79.3367 26.5841C79.3367 26.5412 79.3338 26.4967 79.3313 26.453ZM73.5709 28.1846C71.6814 28.1846 70.1478 27.4693 70.1478 26.5846C70.1478 25.7023 71.6814 24.9853 73.5709 24.9853C75.4607 24.9853 76.9933 25.7019 76.9933 26.5846C76.9933 27.4693 75.4607 28.1846 73.5709 28.1846Z" fill="#231815"/>
<path d="M85.2165 19.5177C86.1102 21.4638 88.7496 22.9323 88.7496 22.9323L89.5688 22.0259C86.4442 19.5177 86.4076 17.5729 86.4076 17.5729L86.3704 15.6289H83.3945L83.4303 16.1902H83.9893V17.4859C83.9147 19.7779 80.7891 22.0679 80.7891 22.0679L81.6458 22.9327C83.9147 21.8518 85.2165 19.5177 85.2165 19.5177Z" fill="#231815"/>
<path d="M93.9223 20.471H95.5598V19.0441H93.9223V15.5642L91.7648 15.1328V24.0596C90.7755 23.612 89.522 23.3455 88.1557 23.3455C84.9717 23.3455 82.3906 24.797 82.3906 26.5878C82.3906 28.3785 84.972 29.8308 88.1557 29.8308C91.3402 29.8308 93.9223 28.3789 93.9223 26.5878C93.9223 26.5432 93.9194 26.4991 93.9173 26.4545L93.9223 26.457V20.471ZM88.1557 28.187C86.2666 28.187 84.733 27.4704 84.733 26.5878C84.733 25.7042 86.2666 24.9868 88.1557 24.9868C90.0463 24.9868 91.5774 25.7042 91.5774 26.5878C91.5778 27.4704 90.0466 28.187 88.1557 28.187Z" fill="#231815"/>
<path d="M108.309 15.0851V20.2608H107.166V15.5535L104.939 15.0488V24.9686H99.8206V17.241H104.059V15.8024H97.4997V24.8974C97.4997 24.8974 97.2532 26.2627 99.0481 26.2985H104.938V29.6061H107.166V21.4824H108.309V29.6415H110.537V15.588L108.309 15.0851Z" fill="#231815"/>
<path d="M121.414 20.216C121.414 19.3899 121.06 18.6334 120.469 18.0318H121.799V16.629H118.086V15.5527H115.89V16.629H112.332V18.0318H113.632C113.041 18.633 112.685 19.3899 112.685 20.216C112.685 22.1612 114.639 23.7392 117.05 23.7392C119.461 23.7397 121.414 22.1612 121.414 20.216ZM114.437 20.2709C114.437 19.046 115.559 18.0517 116.942 18.0517C118.325 18.0517 119.448 19.046 119.448 20.2709C119.448 21.4946 118.325 22.4872 116.942 22.4872C115.559 22.4868 114.437 21.4946 114.437 20.2709Z" fill="#231815"/>
<path d="M126.652 19.5047H125.166V15.6229L122.941 15.1191V24.4294H114.465V25.6506H122.941V29.6768H125.166V20.7633H126.652V19.5047Z" fill="#231815"/>
<path d="M139.855 26.8564V16.6585L137.738 16.1738H128.16V17.3958H137.628V26.8564H135.956V20.7896H133.729V26.8564H132.058V20.7896H129.832V26.8564H127.559V28.0801H140.84V26.8564H139.855Z" fill="#231815"/>
<path d="M39.5868 9.40016L39.2162 10.0089C38.9808 9.87065 38.7364 9.63832 38.4842 9.31315C38.2308 8.98797 38.0667 8.68694 37.9908 8.41047C37.9302 8.72233 37.7829 9.04876 37.5493 9.39017C37.3153 9.73159 37.0545 9.98474 36.766 10.1492L36.3672 9.56754C37.2139 9.03668 37.6378 8.13359 37.6378 6.85869V6.69798H36.6234V6.07593H39.3187V6.69798H38.3387V6.85203C38.3387 8.04657 38.7547 8.89637 39.5868 9.40016ZM40.6123 11.4266H39.9454V5.4668H40.6123V11.4266Z" fill="#005286"/>
<path d="M41.7601 8.24601C41.5114 7.98495 41.3867 7.64728 41.3867 7.23217C41.3867 6.81789 41.5111 6.47064 41.7601 6.1921C42.0091 5.91355 42.3177 5.77407 42.686 5.77407C43.0544 5.77407 43.3643 5.91355 43.6148 6.1921C43.8656 6.47064 43.9914 6.81789 43.9914 7.23217C43.9914 7.64687 43.8678 7.98454 43.6209 8.24601C43.374 8.50665 43.0619 8.63697 42.6864 8.63697C42.3173 8.63739 42.0091 8.50665 41.7601 8.24601ZM42.0023 9.18532H45.5412V11.4328H44.8743V9.80778H42.0023V9.18532ZM42.031 7.22551C42.031 7.462 42.0908 7.65519 42.2102 7.80467C42.3298 7.95372 42.4882 8.02784 42.686 8.02784C42.8834 8.02784 43.0443 7.95248 43.1676 7.8005C43.2912 7.64895 43.3529 7.45742 43.3529 7.22551C43.3529 6.99776 43.293 6.8079 43.1733 6.65343C43.0537 6.49979 42.8917 6.42276 42.6864 6.42276C42.4925 6.42276 42.3352 6.50104 42.2134 6.65676C42.0915 6.81331 42.031 7.00275 42.031 7.22551ZM44.1451 8.23602L44.1623 7.58025H44.8743V6.85162H44.1623L44.1451 6.19585H44.8743V5.4668H45.5412V8.87805H44.8743V8.23602H44.1451Z" fill="#005286"/>
<path d="M50.8583 9.51341L50.4763 10.1022C50.252 9.94185 50.0219 9.69745 49.7869 9.36977C49.5511 9.04251 49.3913 8.72899 49.3081 8.43004C49.2247 8.76896 49.0677 9.10663 48.838 9.44347C48.608 9.77989 48.3604 10.033 48.0945 10.2029L47.6953 9.62791C48.5349 8.98589 48.9548 8.06947 48.9548 6.87868V5.96893H49.6385V6.83871C49.6385 7.41828 49.7449 7.93582 49.9578 8.39007C50.1703 8.84474 50.4702 9.21946 50.8583 9.51341ZM51.9755 11.4266H51.3029V8.14234H50.3853V7.47991H51.3029V5.4668H51.9755V11.4266Z" fill="#005286"/>
<path d="M55.3482 9.95559H52.9492V5.94894H53.61V7.38039H54.676V5.93562H55.3479L55.3482 9.95559ZM54.676 7.99578H53.61V9.34021H54.676V7.99578ZM56.8926 11.4266H56.2315V5.4668H56.8926V11.4266Z" fill="#005286"/>
<path d="M62.2162 10.6504H57.6289V10.0284H62.2162V10.6504ZM62.1195 8.20888L61.7833 8.8176C61.4075 8.71518 61.0373 8.51657 60.6722 8.2222C60.3078 7.92784 60.0566 7.596 59.9197 7.22543C59.7943 7.60474 59.5463 7.94449 59.1762 8.24594C58.8049 8.54655 58.4301 8.74599 58.0499 8.84466L57.7364 8.2093C58.0252 8.16017 58.3072 8.049 58.5828 7.87454C58.8583 7.70092 59.0927 7.46567 59.2862 7.16923C59.48 6.87236 59.5768 6.55717 59.5768 6.22325V5.82812H60.2723V6.22325C60.2723 6.42352 60.311 6.62129 60.3887 6.8149C60.4665 7.00893 60.5701 7.18172 60.6994 7.33327C60.828 7.48483 60.9739 7.62181 61.1351 7.74422C61.2967 7.86705 61.4609 7.96739 61.6282 8.04525C61.7962 8.12311 61.9593 8.17765 62.1195 8.20888Z" fill="#005286"/>
<path d="M65.5148 8.28348L65.1328 8.8922C64.9315 8.79811 64.7175 8.63031 64.4918 8.38757C64.2657 8.14442 64.1016 7.89127 63.9991 7.62855C63.9231 7.9225 63.7712 8.20646 63.5433 8.48125C63.3154 8.7548 63.0796 8.94841 62.8363 9.05958L62.4375 8.4442C62.8059 8.28806 63.1004 8.02659 63.3208 7.65852C63.5415 7.29004 63.6515 6.88118 63.6515 6.43109V5.80238H64.3352V6.39029C64.3352 6.83246 64.4527 7.22801 64.6885 7.57817C64.9239 7.92749 65.1988 8.16232 65.5148 8.28348ZM66.6543 11.2725H63.2978V9.33938H63.9643V10.6572H66.6543V11.2725ZM66.5289 5.4668V7.17263H67.2527V7.82132H66.5289V9.7878H65.8617V5.4668H66.5289Z" fill="#005286"/>
<path d="M67.5234 7.15931C67.5234 6.74877 67.6481 6.40819 67.8968 6.13922C68.1459 5.86983 68.4601 5.73452 68.8399 5.73452C69.2201 5.73452 69.5329 5.86859 69.7802 6.13589C70.0274 6.40361 70.1507 6.74419 70.1507 7.15931C70.1507 7.57359 70.0281 7.90501 69.7834 8.15233C69.5387 8.39965 69.2237 8.52372 68.8403 8.52372C68.4529 8.52372 68.1369 8.40006 67.8914 8.15233C67.6463 7.90501 67.5234 7.57359 67.5234 7.15931ZM68.1906 7.14598C68.1906 7.37332 68.2508 7.55152 68.3727 7.68101C68.4945 7.81008 68.65 7.87462 68.8399 7.87462C69.0263 7.87462 69.1811 7.81008 69.3043 7.68101C69.4276 7.55152 69.4896 7.37332 69.4896 7.14598C69.4896 6.90491 69.429 6.71713 69.3072 6.58056C69.1857 6.44483 69.0298 6.37655 68.8399 6.37655C68.65 6.37655 68.4945 6.44608 68.3727 6.58681C68.2512 6.72796 68.1906 6.91365 68.1906 7.14598ZM71.6947 11.3525H68.3436V8.97131H69.0162V9.56005H71.0221V8.95841H71.6944V11.3525H71.6947ZM71.0225 10.1617H69.0166V10.7309H71.0225V10.1617ZM71.6897 8.66404H71.0229V7.4466H70.3503V6.81831H71.0229V5.4668H71.6897V8.66404Z" fill="#005286"/>
<path d="M76.5907 10.1229H75.9239V9.14573H73.918V8.53035H78.5053V9.14573H76.5907V10.1229ZM77.9183 8.0761H74.5053V5.70783H75.1721V6.32322H77.2576V5.70117H77.9183V8.0761ZM77.9699 11.2667H74.5049V9.59415H75.1718V10.6513H77.9699V11.2667ZM77.2572 6.93235H75.1718V7.45405H77.2572V6.93235Z" fill="#005286"/>
<path d="M78.8867 8.00827C78.8867 7.3704 79.0046 6.85578 79.2404 6.46315C79.4751 6.07094 79.7969 5.87441 80.2032 5.87441C80.6139 5.87441 80.9356 6.07094 81.1693 6.46315C81.4029 6.85578 81.5197 7.3704 81.5197 8.00827C81.5197 8.64155 81.4032 9.15285 81.1693 9.54339C80.9356 9.93394 80.6139 10.1292 80.2032 10.1292C79.7969 10.1292 79.4754 9.93394 79.2404 9.54339C79.0046 9.15326 78.8867 8.64155 78.8867 8.00827ZM80.8815 8.00827C80.8815 7.54486 80.8188 7.17804 80.693 6.90824C80.5676 6.63802 80.4046 6.50354 80.2029 6.50354C80.009 6.50354 79.8495 6.63802 79.7241 6.90824C79.5987 7.17804 79.5364 7.54486 79.5364 8.00827C79.5364 8.46752 79.5987 8.831 79.7241 9.09872C79.8495 9.36602 80.009 9.49967 80.2029 9.49967C80.4042 9.49967 80.5676 9.36561 80.693 9.09872C80.8188 8.83058 80.8815 8.46752 80.8815 8.00827ZM83.526 6.86452V7.51405H82.8129V8.71775H83.526V9.36644H82.8129V11.4266H82.1464V5.4668H82.8129V6.86411L83.526 6.86452Z" fill="#005286"/>
<path d="M89.8611 8.84494H87.8892V9.22633C88.3604 9.26131 88.7259 9.37414 88.9868 9.564C89.2469 9.75386 89.3766 9.99785 89.3766 10.2964C89.3766 10.6307 89.2183 10.893 88.9011 11.0821C88.5837 11.2719 88.1383 11.3668 87.5649 11.3668C86.9948 11.3668 86.5509 11.2719 86.2338 11.0821C85.9163 10.893 85.7579 10.6311 85.7579 10.2964C85.7579 9.99743 85.8858 9.75345 86.1427 9.564C86.3989 9.37414 86.7591 9.26172 87.2227 9.22633V8.84494H85.2734V8.21624H89.8615L89.8611 8.84494ZM89.6278 7.38018L89.3426 8.00223C88.9703 7.96684 88.6177 7.84443 88.2855 7.63416C87.953 7.42473 87.7129 7.17742 87.5649 6.89179C87.4352 7.18658 87.2084 7.43473 86.8838 7.6375C86.5591 7.84068 86.1954 7.96184 85.7923 8.00223C85.7583 7.92187 85.7077 7.8107 85.6414 7.66747C85.5752 7.52508 85.5321 7.43306 85.5135 7.39309C85.9199 7.37102 86.2764 7.2686 86.582 7.0854C86.8877 6.9022 87.0844 6.66363 87.1722 6.37009H85.7471V5.74805H89.4057V6.37009H87.9752C88.0734 6.6553 88.2837 6.89054 88.6052 7.07582C88.9251 7.2611 89.2663 7.3627 89.6278 7.38018ZM88.6983 10.303C88.6983 10.1561 88.5958 10.042 88.3909 9.95871C88.1859 9.87586 87.9086 9.83464 87.5581 9.83464C87.2127 9.83464 86.9389 9.87627 86.7376 9.95871C86.5362 10.0412 86.4359 10.1557 86.4359 10.303C86.4359 10.4459 86.5362 10.557 86.7376 10.6378C86.9393 10.7182 87.2123 10.7577 87.5581 10.7577C87.9086 10.7577 88.1856 10.7177 88.3909 10.6378C88.5958 10.557 88.6983 10.4459 88.6983 10.303Z" fill="#005286"/>
<path d="M90.3776 6.49021V5.84818H93.056V6.49021H92.0814C92.104 6.89117 92.2233 7.23467 92.4372 7.52029C92.6526 7.80592 92.9095 8.0066 93.2094 8.12235L92.8454 8.73732C92.6361 8.64322 92.4261 8.49041 92.2154 8.27557C92.0047 8.06115 91.8478 7.82549 91.7449 7.56651C91.669 7.84714 91.517 8.11486 91.2891 8.36925C91.0612 8.62282 90.8197 8.80394 90.5653 8.91052L90.1719 8.29514C90.5324 8.13901 90.8237 7.90501 91.044 7.59316C91.2644 7.28088 91.3816 6.91282 91.3977 6.48938L90.3776 6.49021ZM94.4008 11.3529H91.0268V9.15201H94.4008V11.3529ZM93.7344 9.75407H91.6883V10.7438H93.7344V9.75407ZM94.4008 8.86472H93.734V7.5332H92.9819V6.90491H93.734V5.4668H94.4008V8.86472Z" fill="#005286"/>
<path d="M97.1484 10.6232V9.91412L97.6565 9.25127C97.8877 8.95732 98.0625 8.72665 98.1811 8.55928C98.3005 8.39231 98.418 8.19746 98.533 7.97429C98.6484 7.75112 98.7057 7.56625 98.7057 7.41886C98.7057 7.18736 98.647 7.02873 98.5305 6.94421C98.4133 6.85969 98.2374 6.81722 98.002 6.81722C97.7938 6.81722 97.5519 6.888 97.2771 7.03123L97.1932 6.16811C97.4874 5.98991 97.8726 5.90039 98.3495 5.90039C99.2988 5.90039 99.7735 6.34382 99.7735 7.23192C99.7735 7.32601 99.7639 7.42261 99.7456 7.52337C99.7266 7.62288 99.699 7.72322 99.6621 7.82356C99.6245 7.92391 99.5869 8.02009 99.5474 8.11127C99.5091 8.20245 99.4582 8.29863 99.3969 8.39856C99.3357 8.49849 99.2844 8.58384 99.2429 8.65296C99.2024 8.72207 99.1468 8.80326 99.0787 8.89695C99.0096 8.99063 98.9605 9.05724 98.9308 9.09763C98.901 9.1376 98.8573 9.19381 98.7996 9.26834C98.7419 9.3412 98.7107 9.38117 98.7072 9.38492L98.4502 9.7126H99.7287V10.6223H97.1484V10.6232Z" fill="#EF8200"/>
<path d="M101.759 10.7105C101.272 10.7105 100.876 10.5231 100.572 10.1484C100.269 9.77409 100.117 9.20118 100.117 8.42924V8.28268C100.117 7.86799 100.163 7.50325 100.254 7.1889C100.345 6.87496 100.47 6.6264 100.631 6.44361C100.791 6.26083 100.967 6.12426 101.161 6.03558C101.355 5.94648 101.563 5.90234 101.786 5.90234C102.262 5.90234 102.658 6.09762 102.973 6.48775C103.287 6.87788 103.445 7.46745 103.445 8.25604V8.37678C103.445 8.79564 103.398 9.16121 103.305 9.47348C103.212 9.78575 103.086 10.0289 102.925 10.2025C102.765 10.3766 102.588 10.5048 102.392 10.5872C102.197 10.6689 101.986 10.7105 101.759 10.7105ZM101.77 9.81406C101.982 9.81406 102.136 9.70497 102.231 9.48638C102.326 9.26821 102.373 8.90889 102.373 8.40967V8.26228C102.373 7.2855 102.174 6.79752 101.775 6.79752C101.571 6.79752 101.423 6.90911 101.332 7.13228C101.241 7.35545 101.195 7.71601 101.195 8.21565V8.35596C101.195 8.85934 101.24 9.22866 101.329 9.46307C101.419 9.69706 101.566 9.81406 101.77 9.81406Z" fill="#EF8200"/>
<path d="M103.617 11.3065L104.946 5.74805H105.773L104.432 11.3065H103.617Z" fill="#EF8200"/>
<path d="M107.527 10.7164C107.006 10.7164 106.611 10.604 106.343 10.3787C106.075 10.1535 105.941 9.85159 105.941 9.4727C105.941 9.20082 106.005 8.96266 106.131 8.76031C106.258 8.55754 106.431 8.40266 106.651 8.29565C106.446 8.16616 106.294 8.02044 106.195 7.85764C106.097 7.69442 106.047 7.48208 106.047 7.21852C106.047 6.81798 106.183 6.49988 106.452 6.26547C106.722 6.03148 107.088 5.91406 107.55 5.91406C108.019 5.91406 108.379 6.01899 108.63 6.22842C108.881 6.43785 109.007 6.73221 109.007 7.1111C109.007 7.34343 108.955 7.55369 108.85 7.74356C108.747 7.933 108.594 8.07456 108.392 8.16824C108.903 8.40016 109.158 8.78363 109.158 9.31865C109.158 9.75125 109.016 10.0927 108.731 10.3421C108.445 10.5919 108.045 10.7164 107.527 10.7164ZM107.499 9.90697C107.712 9.90697 107.872 9.85784 107.982 9.75958C108.092 9.66215 108.147 9.53224 108.147 9.37195C108.147 9.18875 108.082 9.03219 107.952 8.89979C107.822 8.76864 107.645 8.68453 107.421 8.64956C107.265 8.70702 107.133 8.80153 107.025 8.93352C106.917 9.06509 106.864 9.19999 106.864 9.3378C106.863 9.71753 107.075 9.90697 107.499 9.90697ZM107.65 7.79352C107.769 7.74938 107.874 7.67361 107.966 7.56952C108.057 7.46459 108.102 7.34843 108.102 7.21811C108.102 7.07113 108.058 6.95413 107.968 6.86753C107.879 6.78051 107.745 6.73679 107.566 6.73679C107.402 6.73679 107.275 6.77843 107.184 6.86045C107.092 6.94331 107.047 7.05364 107.047 7.19146C107.047 7.34343 107.093 7.46792 107.184 7.56618C107.275 7.66486 107.431 7.74064 107.65 7.79352Z" fill="#EF8200"/>
<path d="M111.095 10.7105C110.607 10.7105 110.212 10.5231 109.908 10.1484C109.605 9.77409 109.453 9.20118 109.453 8.42924V8.28268C109.453 7.86799 109.499 7.50325 109.59 7.1889C109.681 6.87496 109.806 6.6264 109.967 6.44361C110.127 6.26083 110.303 6.12426 110.497 6.03558C110.69 5.94648 110.899 5.90234 111.122 5.90234C111.598 5.90234 111.994 6.09762 112.309 6.48775C112.623 6.87788 112.781 7.46745 112.781 8.25604V8.37678C112.781 8.79564 112.734 9.16121 112.641 9.47348C112.548 9.78575 112.421 10.0289 112.261 10.2025C112.101 10.3766 111.923 10.5048 111.728 10.5872C111.534 10.6689 111.322 10.7105 111.095 10.7105ZM111.106 9.81406C111.318 9.81406 111.472 9.70497 111.567 9.48638C111.662 9.26821 111.709 8.90889 111.709 8.40967V8.26228C111.709 7.2855 111.51 6.79752 111.111 6.79752C110.908 6.79752 110.759 6.90911 110.668 7.13228C110.577 7.35545 110.531 7.71601 110.531 8.21565V8.35596C110.531 8.85934 110.576 9.22866 110.665 9.46307C110.755 9.69706 110.901 9.81406 111.106 9.81406Z" fill="#EF8200"/>
<path d="M117.45 9.0855L117.528 9.91489C117.078 10.0531 116.326 10.1227 115.273 10.1227C115.113 10.1227 114.961 10.116 114.82 10.1023V7.48709H116.278V6.72473H114.82V5.91532H117.159V8.28983H115.703V9.24622C116.346 9.26412 116.929 9.21083 117.45 9.0855ZM119.226 8.49718H118.6V11.4538H117.735V5.43359H118.6V7.64739H119.226V8.49718Z" fill="#EF8200"/>
<path d="M119.941 9.63718C119.692 9.2254 119.566 8.69745 119.566 8.05542C119.566 7.41339 119.692 6.88586 119.941 6.47325C120.19 6.06105 120.522 5.85454 120.935 5.85454C121.355 5.85454 121.689 6.05897 121.937 6.467C122.184 6.87504 122.308 7.40257 122.308 8.04918C122.308 8.69079 122.184 9.21957 121.937 9.63427C121.689 10.0485 121.355 10.2567 120.935 10.2567C120.522 10.2559 120.19 10.0494 119.941 9.63718ZM121.459 8.04876C121.459 7.64281 121.411 7.33553 121.314 7.12569C121.217 6.91626 121.091 6.81133 120.935 6.81133C120.786 6.81133 120.663 6.91626 120.566 7.12569C120.469 7.33553 120.421 7.64322 120.421 8.04876C120.421 8.45888 120.469 8.76865 120.566 8.97808C120.663 9.18709 120.786 9.29202 120.935 9.29202C121.091 9.29202 121.217 9.18834 121.314 8.98099C121.412 8.77448 121.459 8.46346 121.459 8.04876ZM123.682 11.4529H122.811V5.43359H123.682V11.4529Z" fill="#EF8200"/>
<path d="M128.818 10.7705H124.273V9.9211H128.818V10.7705ZM128.467 6.74426H124.597V5.9082H128.467V6.74426ZM128.444 9.2391H124.614V8.41637H125.317L125.19 7.05819L126.065 6.99116L126.138 8.41595H126.948L127.043 6.97784L127.925 7.07818L127.752 8.41595H128.445V9.2391H128.444Z" fill="#EF8200"/>
<path d="M132.73 9.20583L132.791 10.0419C132.423 10.1535 131.858 10.2047 131.099 10.1955L130.691 10.1884V6.10893H132.612V6.93791H131.561V9.33282C132.025 9.33324 132.414 9.29077 132.73 9.20583ZM134.919 11.4529H134.092V8.51009H133.785V11.199H132.976V5.5202H133.785V7.64073H134.092V5.43359H134.919V11.4529Z" fill="#EF8200"/>
<path d="M138.297 7.34636H135.344V6.56443H138.297V7.34636ZM138.046 8.47636C138.046 8.75699 137.93 8.99598 137.697 9.19167C137.465 9.3882 137.169 9.48646 136.812 9.48646C136.45 9.48646 136.155 9.38861 135.924 9.19167C135.693 8.99598 135.577 8.75699 135.577 8.47636C135.577 8.1999 135.693 7.96132 135.924 7.76064C136.155 7.56037 136.451 7.45961 136.812 7.45961C137.169 7.45961 137.464 7.55995 137.697 7.76064C137.93 7.96174 138.046 8.20032 138.046 8.47636ZM135.925 9.67424H139.386V11.46H138.504V10.4903H135.925V9.67424ZM137.622 6.37665H136.109V5.56766H137.622V6.37665ZM136.404 8.47636C136.404 8.56588 136.445 8.63916 136.524 8.69704C136.605 8.75533 136.703 8.78364 136.818 8.78364C136.933 8.78364 137.031 8.75533 137.111 8.69704C137.191 8.63916 137.231 8.56588 137.231 8.47636C137.231 8.38227 137.192 8.30566 137.114 8.2457C137.035 8.18533 136.937 8.15493 136.818 8.15493C136.698 8.15493 136.6 8.18533 136.522 8.2457C136.444 8.30607 136.404 8.38268 136.404 8.47636ZM140.001 8.08207H139.386V9.46647H138.51V5.43359H139.386V7.23269H140.001V8.08207Z" fill="#EF8200"/>
</svg>
